<?xml version="1.0" encoding="UTF-8"?>
<svg id="Layer_1" xmlns="http://www.w3.org/2000/svg" version="1.1" viewBox="0 0 2521 2911">
  <!-- Generator: Adobe Illustrator 30.0.0, SVG Export Plug-In . SVG Version: 2.1.1 Build 123)  -->
  <defs>
    <style>
      .st0 {
        fill: #fff8f0;
      }

      .st1 {
        opacity: .15;
      }

      .st1, .st2 {
        isolation: isolate;
      }

      .st2 {
        font-family: Arial-BoldMT, Arial;
        font-size: 320px;
        font-weight: 700;
      }

      .st2, .st3 {
        fill: #fff;
      }

      .st4 {
        fill: #e67e22;
      }

      .st5 {
        fill: #ffe5cc;
      }

      .st6 {
        fill: #d35400;
      }
    </style>
  </defs>
  <path class="st4" d="M2443.1,776.1l-178.1-102.9c-252.8-183.2-693.3-408.3-1004.5-579.9-353.4,202.8-724.6,418.3-1007.6,581.6l-175,101.2v1365.6l1182.6,682.8,1182.6-682.8V776.1Z"/>
  <rect class="st0" x="420" y="750" width="1681" height="180" rx="25" ry="25"/>
  <circle class="st4" cx="570" cy="840" r="45"/>
  <polygon class="st3" points="560 825 560 855 580 840 560 825"/>
  <path class="st6" d="M705,815h930c13.81,0,25,11.19,25,25h0c0,13.81-11.19,25-25,25h-930c-13.81,0-25-11.19-25-25h0c0-13.81,11.19-25,25-25Z"/>
  <rect class="st1" x="430" y="1000" width="1681" height="592.93" rx="25" ry="25"/>
  <rect class="st3" x="420" y="990" width="1681" height="584.04" rx="25" ry="25"/>
  <rect class="st0" x="420" y="990" width="1681" height="180" rx="25" ry="25"/>
  <rect class="st0" x="420" y="1140" width="1681" height="30"/>
  <circle class="st4" cx="570" cy="1085" r="45"/>
  <polygon class="st3" points="555 1075 585 1075 570 1095 555 1075"/>
  <path class="st6" d="M705,1060h930c13.81,0,25,11.19,25,25h0c0,13.81-11.19,25-25,25h-930c-13.81,0-25-11.19-25-25h0c0-13.81,11.19-25,25-25Z"/>
  <path class="st5" d="M547.5,1210h1225c15.19,0,27.5,12.31,27.5,27.5h0c0,15.19-12.31,27.5-27.5,27.5H547.5c-15.19,0-27.5-12.31-27.5-27.5h0c0-15.19,12.31-27.5,27.5-27.5Z"/>
  <path class="st5" d="M547.5,1295h1125c15.19,0,27.5,12.31,27.5,27.5h0c0,15.19-12.31,27.5-27.5,27.5H547.5c-15.19,0-27.5-12.31-27.5-27.5h0c0-15.19,12.31-27.5,27.5-27.5Z"/>
  <path class="st5" d="M547.5,1380h925c15.19,0,27.5,12.31,27.5,27.5h0c0,15.19-12.31,27.5-27.5,27.5h-925c-15.19,0-27.5-12.31-27.5-27.5h0c0-15.19,12.31-27.5,27.5-27.5Z"/>
  <rect class="st0" x="420" y="1645" width="1681" height="180" rx="25" ry="25"/>
  <circle class="st4" cx="570" cy="1735" r="45"/>
  <polygon class="st3" points="560 1720 560 1750 580 1735 560 1720"/>
  <path class="st6" d="M705,1710h830c13.81,0,25,11.19,25,25h0c0,13.81-11.19,25-25,25h-830c-13.81,0-25-11.19-25-25h0c0-13.81,11.19-25,25-25Z"/>
  <text class="st2" transform="translate(753.62 2220)"><tspan x="0" y="0">details</tspan></text>
  <path class="st5" d="M540.78,1470h698.94c11.48,0,20.78,12.31,20.78,27.5h0c0,15.19-9.3,27.5-20.78,27.5h-698.94c-11.48,0-20.78-12.31-20.78-27.5h0c0-15.19,9.3-27.5,20.78-27.5Z"/>
</svg>